<svg xmlns="http://www.w3.org/2000/svg" width="18" height="18" viewBox="0 0 18 18" fill="none">
  <path fill-rule="evenodd" clip-rule="evenodd" d="M9 0C7.91719 0 7.03125 0.9 7.03125 2C7.03125 3.1 7.91719 4 9 4C10.0828 4 10.9688 3.1 10.9688 2C10.9688 0.9 10.0828 0 9 0ZM9 14C7.91719 14 7.03125 14.9 7.03125 16C7.03125 17.1 7.91719 18 9 18C10.0828 18 10.9688 17.1 10.9688 16C10.9688 14.9 10.0828 14 9 14ZM7.03125 9C7.03125 7.9 7.91719 7 9 7C10.0828 7 10.9688 7.9 10.9688 9C10.9688 10.1 10.0828 11 9 11C7.91719 11 7.03125 10.1 7.03125 9Z" fill="#9CA0B0"/>
</svg>