<svg xmlns="http://www.w3.org/2000/svg" width="12" height="12" viewBox="0 0 12 12" fill="none">
  <path fill-rule="evenodd" clip-rule="evenodd" d="M2.502 1.20118C2.75604 0.481376 3.43652 0 4.2 0C4.96348 0 5.64396 0.481376 5.898 1.20118H12V2.40088H5.898C5.64396 3.12068 4.96348 3.60206 4.2 3.60206C3.43652 3.60206 2.75604 3.12068 2.502 2.40088H0V1.20118H2.502ZM7.8 4.19897C7.03652 4.19897 6.35604 4.68035 6.102 5.40015H0V6.59985H6.102C6.35604 7.31965 7.03652 7.80103 7.8 7.80103C8.56348 7.80103 9.24396 7.31965 9.498 6.59985H12V5.40015H9.498C9.24396 4.68035 8.56348 4.19897 7.8 4.19897ZM4.2 8.39794C3.43652 8.39794 2.75604 8.87932 2.502 9.59912H0V10.7988H2.502C2.75604 11.5186 3.43652 12 4.2 12C4.96348 12 5.64396 11.5186 5.898 10.7988H12V9.59912H5.898C5.64396 8.87932 4.96348 8.39794 4.2 8.39794ZM4.8 1.80103C4.8 2.13232 4.53137 2.40088 4.2 2.40088C3.86863 2.40088 3.6 2.13232 3.6 1.80103C3.6 1.46974 3.86863 1.20118 4.2 1.20118C4.53137 1.20118 4.8 1.46974 4.8 1.80103ZM7.8 6.59985C8.13137 6.59985 8.4 6.33129 8.4 6C8.4 5.66871 8.13137 5.40015 7.8 5.40015C7.46863 5.40015 7.2 5.66871 7.2 6C7.2 6.33129 7.46863 6.59985 7.8 6.59985ZM4.8 10.199C4.8 10.5303 4.53137 10.7988 4.2 10.7988C3.86863 10.7988 3.6 10.5303 3.6 10.199C3.6 9.86768 3.86863 9.59912 4.2 9.59912C4.53137 9.59912 4.8 9.86768 4.8 10.199Z" fill="#0A143A"/>
</svg>