<svg xmlns="http://www.w3.org/2000/svg" width="14" height="14" viewBox="0 0 14 14" fill="none">
  <path fill-rule="evenodd" clip-rule="evenodd" d="M2.37674 3.81039C2.37674 5.91563 4.09916 7.62078 6.22571 7.62078C8.35227 7.62078 10.0747 5.91563 10.0747 3.81039C10.0747 1.70515 8.35227 0 6.22571 0C4.09916 0 2.37674 1.70515 2.37674 3.81039ZM6.22571 9.52597V8.25584C3.39141 8.25584 1.09375 10.5305 1.09375 13.3364H2.37674C2.37674 11.2319 4.09999 9.52597 6.22571 9.52597ZM6.22572 6.35065C7.64342 6.35065 8.7917 5.21388 8.7917 3.81039C8.7917 2.4069 7.64342 1.27013 6.22572 1.27013C4.80801 1.27013 3.65973 2.4069 3.65973 3.81039C3.65973 5.21388 4.80801 6.35065 6.22572 6.35065ZM8.18933 14L10.0747 13.0188L11.9594 14L11.6002 11.9221L13.125 10.45L11.0177 10.1464L10.0747 8.25584L9.13233 10.1464L7.02438 10.45L8.54921 11.9221L8.18933 14Z" fill="#FFAC3A"/>
</svg>